PathFileType	4	(X/Y/Z)	C:/Users/opensim2020/Desktop/walking_exp_matlab/subject02_walking13_straight_04.trc	
DataRate	CameraRate	NumFrames	NumMarkers	Units	OrigDataRate	OrigDataStartFrame	OrigNumFrames	
100.00	100.00	4	41	mm	100.00	1736	118	
Frame#	Time	LFHD			RFHD			LBHD			RBHD			C7			T10			CLAV			STRN			RBAK			LSHO			LUPA			LELB			LFRM			LWRA			LWRB			LFIN			RSHO			RUPA			RELB			RFRM			RWRA			RWRB			RFIN			LASI			RASI			LPSI			RPSI			LTHI			LKNE			LTIB			LANK			LHEE			LTOE			RTHI			RKNE			RTIB			RANK			RHEE			RTOE			*39			*40			
		X1	Y1	Z1	X2	Y2	Z2	X3	Y3	Z3	X4	Y4	Z4	X5	Y5	Z5	X6	Y6	Z6	X7	Y7	Z7	X8	Y8	Z8	X9	Y9	Z9	X10	Y10	Z10	X11	Y11	Z11	X12	Y12	Z12	X13	Y13	Z13	X14	Y14	Z14	X15	Y15	Z15	X16	Y16	Z16	X17	Y17	Z17	X18	Y18	Z18	X19	Y19	Z19	X20	Y20	Z20	X21	Y21	Z21	X22	Y22	Z22	X23	Y23	Z23	X24	Y24	Z24	X25	Y25	Z25	X26	Y26	Z26	X27	Y27	Z27	X28	Y28	Z28	X29	Y29	Z29	X30	Y30	Z30	X31	Y31	Z31	X32	Y32	Z32	X33	Y33	Z33	X34	Y34	Z34	X35	Y35	Z35	X36	Y36	Z36	X37	Y37	Z37	X38	Y38	Z38	X39	Y39	Z39	X40	Y40	Z40	X41	Y41	Z41	

1	0.000	1364.64807	824.75476	1711.73315	1223.93896	835.93500	1682.70203	1385.77576	961.06067	1650.55481	1247.21301	983.95129	1621.95618	1306.91956	1030.80371	1502.64832	1294.83728	1081.42432	1225.62891	1342.24243	893.51691	1433.94141	1337.39722	840.29199	1262.75488	1232.27393	1077.28857	1326.87720	1492.31787	1000.44348	1473.23914	1550.29053	1088.30261	1288.97913	1546.35645	1132.76941	1154.36194	1548.97791	1168.64697	1024.75061	1506.63989	1152.69495	888.60938	1540.64221	1196.36084	903.43048	1526.36719	1205.17480	835.35431	1138.26624	928.33459	1473.60376	1041.33020	915.08606	1289.69836	1016.63934	860.92267	1150.35291	1025.94434	768.91418	1069.49011	1077.86292	664.72589	1003.02716	1039.30200	688.38550	968.66510	1053.98755	620.32513	948.98627	1451.46191	868.29730	961.38379	1195.70032	867.35211	935.04034	1363.34888	1074.79175	1016.45044	1249.82312	1076.67407	1011.95642	1544.44543	887.22009	673.02661	1526.49414	828.92328	482.21442	1547.45496	802.01660	292.71136	1547.82019	696.41510	90.06807	1496.68652	712.22998	46.51590	1564.64685	541.15411	112.71514	1148.00061	1030.26147	646.29590	1198.94019	1105.33899	450.23569	1191.32996	1211.77319	293.97470	1229.45117	1305.14868	122.81155	1278.19739	1364.71460	83.27216	1249.89355	1170.87744	41.48851	1275.00623	925.42419	1779.97742	-3357.29980	2845.91675	1034.38037 
2	0.010	1369.01147	811.91034	1710.04797	1228.33545	823.65619	1680.99097	1390.60742	948.05670	1648.73181	1252.14600	971.50775	1620.13147	1312.30823	1017.92639	1500.66748	1300.26892	1067.76184	1223.39807	1346.80457	880.17352	1432.27478	1341.24561	826.33008	1261.22253	1237.88831	1064.39539	1324.63794	1497.61072	986.15979	1471.10291	1555.14392	1074.80823	1287.06897	1549.22913	1119.98767	1152.77661	1551.14209	1159.21582	1024.49683	1507.33862	1148.07312	888.34387	1542.10120	1190.64709	903.98224	1526.30273	1202.39990	836.40576	1143.03857	916.92383	1471.99133	1045.88342	903.22253	1288.18323	1020.25641	848.66937	1149.32983	1029.80103	755.43402	1070.20667	1080.99060	649.51111	1005.80103	1043.12610	672.92517	970.80621	1057.25159	604.26648	952.83221	1455.38452	851.96332	960.04681	1199.56921	853.05255	933.30328	1369.23486	1059.63367	1014.26715	1255.63000	1062.12280	1009.88245	1549.05347	866.18341	672.66138	1530.07861	810.18976	481.21976	1550.92493	785.03418	291.15836	1549.39124	682.88110	86.75724	1498.92737	700.25897	43.55721	1564.93823	527.95367	108.14622	1150.85522	1017.62286	645.45074	1200.60461	1094.57764	450.00467	1192.40796	1204.68945	296.47168	1228.90430	1302.12085	127.32034	1277.69421	1362.45093	89.43018	1249.55774	1170.32141	41.55270	1279.67114	912.93781	1778.08618	-3360.32739	2845.27515	1034.20190 
3	0.020	1373.41809	799.12012	1708.48669	1232.79089	811.29950	1679.36780	1395.67188	935.13739	1647.13599	1257.15149	959.05365	1618.38416	1317.74255	1004.98065	1498.79370	1305.56873	1053.89709	1221.18579	1351.39734	866.78284	1430.80396	1345.51245	812.34845	1260.02490	1243.52368	1051.43445	1322.52869	1502.89856	971.80853	1469.21802	1559.95911	1060.85193	1285.10840	1552.44775	1106.70825	1151.32654	1553.74219	1148.85779	1024.33398	1508.37634	1142.32800	888.12909	1544.24670	1183.71289	904.69922	1526.92114	1198.45544	837.73938	1147.64197	905.03052	1470.56018	1050.74036	892.28540	1286.94482	1024.14685	836.72327	1148.48499	1033.23816	742.13269	1070.58557	1084.20996	635.03583	1008.56952	1046.79602	658.26501	972.69800	1060.21350	589.75214	955.88446	1459.55237	835.29126	959.15210	1203.73474	838.01776	931.99268	1374.69861	1044.49146	1012.21820	1261.50000	1047.09070	1007.89142	1553.62183	844.35962	672.69788	1533.55408	791.49103	480.24399	1554.21130	769.46973	289.53342	1551.20667	672.72571	83.47713	1500.86157	691.14606	40.02063	1564.87561	517.38354	101.96674	1153.84033	1004.27356	644.74426	1202.16541	1082.58618	449.96149	1193.40735	1197.02344	299.37662	1228.45081	1298.62109	132.50633	1277.23999	1359.54919	96.32520	1249.16248	1169.95459	41.33189	1284.48962	900.48126	1776.40942	-3357.22607	2845.92407	1034.38269 
4	0.030	1377.84778	786.30182	1706.91687	1237.23816	799.00977	1677.77966	1400.41980	922.12659	1645.43286	1262.18054	946.62170	1616.71606	1323.13391	991.98560	1496.94214	1310.89844	1039.79724	1218.91614	1356.12183	853.31067	1429.46606	1350.15466	798.19080	1259.14099	1248.99146	1038.35376	1320.47241	1507.98242	957.33167	1467.56262	1564.63745	1046.50171	1283.02417	1555.94763	1092.94409	1149.93958	1557.03882	1137.68201	1024.32275	1510.24011	1135.45801	888.16028	1547.40527	1175.58740	905.45203	1528.27209	1193.29907	839.22083	1152.54541	893.28143	1469.27869	1055.42456	881.37079	1285.62402	1027.99597	825.27313	1147.74768	1037.04492	729.84174	1071.13110	1087.08557	621.41095	1010.76874	1050.45483	644.39465	974.24304	1062.97522	575.46240	958.98285	1464.06677	818.29053	958.72205	1207.80469	822.64911	930.45996	1380.76257	1028.28418	1010.12915	1267.42786	1031.49597	1005.84991	1558.11804	822.21362	673.05060	1536.98950	772.85211	479.04715	1557.27563	755.22076	287.52762	1552.44409	664.08691	79.14238	1502.87390	684.58160	35.89722	1564.73340	508.78671	94.46769	1157.03564	990.19861	644.11481	1203.69702	1069.64819	450.08731	1194.31653	1188.67053	302.62463	1227.87524	1294.58228	138.20015	1276.58325	1355.96509	103.86962	1248.61633	1169.36499	41.19706	1289.23999	888.03552	1774.82764	-3360.37842	2845.20239	1034.33960 
